<?xml version="1.0" standalone="no"?><!DOCTYPE svg PUBLIC "-//W3C//DTD SVG 1.1//EN" "http://www.w3.org/Graphics/SVG/1.1/DTD/svg11.dtd"><svg t="1535273578651" class="icon" style="" viewBox="0 0 1024 1024" version="1.1" xmlns="http://www.w3.org/2000/svg" p-id="18745" xmlns:xlink="http://www.w3.org/1999/xlink" width="200" height="200"><defs><style type="text/css"></style></defs><path d="M304.724213 572.588937l414.551574 0c5.558599 0 10.099009 4.51892 10.099009 10.103102l0 40.392966c0 5.584182-4.54041 10.103102-10.099009 10.103102L304.724213 633.188106c-5.580089 0-10.103102-4.51892-10.103102-10.103102l0-40.392966C294.621111 577.107857 299.141054 572.588937 304.724213 572.588937L304.724213 572.588937zM304.724213 713.976084l414.551574 0c5.558599 0 10.099009 4.514827 10.099009 10.099009l0 40.398082c0 5.580089-4.54041 10.099009-10.099009 10.099009L304.724213 774.572184c-5.580089 0-10.103102-4.51892-10.103102-10.099009l0-40.398082C294.621111 718.490911 299.141054 713.976084 304.724213 713.976084L304.724213 713.976084zM850.555739 794.769178c0 38.383192-0.080841 53.776787 0 80.792071-28.313859 0-38.46301 0-80.787978 0L285.018406 875.561249 173.435051 875.561249l0-80.792071L173.435051 229.226728l0-80.787978c14.735609 0.030699 65.889663 0 111.583354 0l403.961378 0 60.587913-80.792071L173.440168 67.64668c-44.620243 0-80.792071 36.172851-80.792071 80.792071l0 727.123522c0 44.61615 36.172851 80.792071 80.792071 80.792071L850.555739 956.354344c44.617174 0 80.797188-36.176944 80.797188-80.792071l0-585.740468-80.797188 60.592007L850.555739 794.769178 850.555739 794.769178zM816.811194 106.070804c5.659907-6.983041 14.732539-18.266016 19.939121-23.986297 13.140275-14.43885 32.625048-12.091386 43.889603-8.204869 12.088316 4.16281 30.571273 19.173688 39.745213 34.954093 5.579065 9.624195 10.967796 25.797549 0.271176 40.237423-10.646478 14.43885-18.419512 24.063045-18.419512 24.063045L816.811194 106.070804 816.811194 106.070804zM790.55418 140.703579c0 0-147.773601 195.767686-158.385287 210.499202-6.076392 8.444323-8.855692 14.833847-11.358699 23.019273-3.28072 10.653641-11.957333 61.816904-12.313443 77.440743-0.314155 14.753005 4.556783 19.938098 18.73776 16.229636 13.849426-3.606131 60.162218-25.874297 74.596975-35.560914 6.928806-4.63353 13.773701-11.461029 18.304901-17.261129 7.144724-9.130961 155.806555-207.28295 155.806555-207.28295L790.55418 140.703579 790.55418 140.703579zM790.55418 140.703579" p-id="18746"></path></svg>